<svg version="1.1" xmlns="http://www.w3.org/2000/svg" style="display: block;" viewBox="0 0 1656 1652" width="414" height="413" preserveAspectRatio="none">
<defs>
	<linearGradient id="Gradient1" gradientUnits="userSpaceOnUse" x1="1145.68" y1="534.482" x2="1118.63" y2="624.494">
		<stop class="stop0" offset="0" stop-opacity="1" stop-color="rgb(241,176,106)"/>
		<stop class="stop1" offset="1" stop-opacity="1" stop-color="rgb(240,215,157)"/>
	</linearGradient>
	<linearGradient id="Gradient2" gradientUnits="userSpaceOnUse" x1="1055.38" y1="1029.09" x2="1014.05" y2="896.014">
		<stop class="stop0" offset="0" stop-opacity="1" stop-color="rgb(172,89,58)"/>
		<stop class="stop1" offset="1" stop-opacity="1" stop-color="rgb(229,130,73)"/>
	</linearGradient>
	<linearGradient id="Gradient3" gradientUnits="userSpaceOnUse" x1="531.567" y1="1439.6" x2="455.17" y2="1489.39">
		<stop class="stop0" offset="0" stop-opacity="1" stop-color="rgb(187,185,184)"/>
		<stop class="stop1" offset="1" stop-opacity="1" stop-color="rgb(252,251,253)"/>
	</linearGradient>
	<linearGradient id="Gradient4" gradientUnits="userSpaceOnUse" x1="1155.14" y1="1277.19" x2="1099.53" y2="1198.51">
		<stop class="stop0" offset="0" stop-opacity="1" stop-color="rgb(64,94,133)"/>
		<stop class="stop1" offset="1" stop-opacity="1" stop-color="rgb(108,145,182)"/>
	</linearGradient>
	<linearGradient id="Gradient5" gradientUnits="userSpaceOnUse" x1="1357.66" y1="602.878" x2="1179.57" y2="287.988">
		<stop class="stop0" offset="0" stop-opacity="1" stop-color="rgb(46,65,100)"/>
		<stop class="stop1" offset="1" stop-opacity="1" stop-color="rgb(61,92,135)"/>
	</linearGradient>
	<linearGradient id="Gradient6" gradientUnits="userSpaceOnUse" x1="937.792" y1="630.142" x2="898.515" y2="356.276">
		<stop class="stop0" offset="0" stop-opacity="1" stop-color="rgb(70,103,142)"/>
		<stop class="stop1" offset="1" stop-opacity="1" stop-color="rgb(89,125,164)"/>
	</linearGradient>
	<linearGradient id="Gradient7" gradientUnits="userSpaceOnUse" x1="399.197" y1="421.721" x2="207.723" y2="405.302">
		<stop class="stop0" offset="0" stop-opacity="1" stop-color="rgb(109,153,193)"/>
		<stop class="stop1" offset="1" stop-opacity="1" stop-color="rgb(174,207,223)"/>
	</linearGradient>
	<linearGradient id="Gradient8" gradientUnits="userSpaceOnUse" x1="618.208" y1="511.226" x2="524.268" y2="169.076">
		<stop class="stop0" offset="0" stop-opacity="1" stop-color="rgb(74,109,148)"/>
		<stop class="stop1" offset="1" stop-opacity="1" stop-color="rgb(117,150,187)"/>
	</linearGradient>
	<linearGradient id="Gradient9" gradientUnits="userSpaceOnUse" x1="744.18" y1="1216.33" x2="444.033" y2="857.733">
		<stop class="stop0" offset="0" stop-opacity="1" stop-color="rgb(111,149,189)"/>
		<stop class="stop1" offset="1" stop-opacity="1" stop-color="rgb(147,186,210)"/>
	</linearGradient>
	<linearGradient id="Gradient10" gradientUnits="userSpaceOnUse" x1="821.124" y1="1361.3" x2="496.262" y2="889.618">
		<stop class="stop0" offset="0" stop-opacity="1" stop-color="rgb(39,60,95)"/>
		<stop class="stop1" offset="1" stop-opacity="1" stop-color="rgb(73,108,152)"/>
	</linearGradient>
	<linearGradient id="Gradient11" gradientUnits="userSpaceOnUse" x1="1075.96" y1="553.259" x2="1013.77" y2="155.224">
		<stop class="stop0" offset="0" stop-opacity="1" stop-color="rgb(53,136,144)"/>
		<stop class="stop1" offset="1" stop-opacity="1" stop-color="rgb(96,192,189)"/>
	</linearGradient>
	<linearGradient id="Gradient12" gradientUnits="userSpaceOnUse" x1="1266.49" y1="1129.33" x2="1362.09" y2="807.034">
		<stop class="stop0" offset="0" stop-opacity="1" stop-color="rgb(109,115,128)"/>
		<stop class="stop1" offset="1" stop-opacity="1" stop-color="rgb(142,142,149)"/>
	</linearGradient>
</defs>
<path transform="translate(0,0)" fill="rgb(33,37,55)" d="M 111.337 730.462 C 91.2386 712.096 48.5847 665.108 46.1008 636.544 C 44.0211 612.628 58.9446 569.02 66.9855 545.5 C 107.25 427.945 184.795 325.401 279.787 246.3 C 316.421 215.796 358.021 193.892 393.969 161.669 C 408.893 148.291 443.183 128.452 461.429 119.716 C 587.83 59.1995 733.763 39.9852 872.787 42.948 C 907.412 44.5645 946.551 46.2022 979.62 56.3738 C 1015.49 67.4064 1035.58 89.7804 1059.92 114.984 C 1061.96 117.093 1093.73 124.985 1100.25 126.785 C 1115.26 130.863 1130.15 135.383 1144.89 140.34 C 1245.82 175.046 1342.39 229.961 1423.72 299.272 C 1437.41 310.943 1457.72 328.122 1465.25 344.002 C 1476.97 368.733 1466.06 417.356 1456.86 442.526 C 1467.8 469.014 1479.75 490.824 1490.91 519.719 C 1494.84 529.81 1498.42 540.037 1501.64 550.38 C 1504.62 560.004 1508.81 575.964 1513.55 584.151 C 1519.03 592.632 1526.87 599.842 1533.14 607.733 C 1653.28 758.893 1633.47 995.192 1478.45 1114.83 C 1458.86 1129.95 1439.09 1139.58 1418.05 1152.25 C 1409.15 1174.95 1404.55 1201.64 1390.04 1221.73 C 1375.34 1242.07 1251.4 1311.27 1222.75 1327.07 C 1199.24 1342.48 1175.09 1356.9 1150.37 1370.29 C 1141.33 1375.91 1131.72 1381.03 1122.71 1386.65 C 1064.76 1422.79 1030.02 1451.37 961.976 1414.79 C 915.034 1432.92 869.404 1454.28 822.45 1472 C 770.984 1491.43 719.027 1509.32 666.926 1526.93 C 661.494 1528.92 655.783 1531.05 650.596 1533.55 C 607.207 1554.47 569.497 1602.4 518.875 1604.99 C 452.776 1608.37 379.319 1604.74 315.001 1587.3 C 308.598 1585.56 296.197 1575.53 291.483 1570.65 C 266.535 1534.72 243.883 1494.42 221.789 1456.67 C 215.899 1446.61 216.611 1423.25 210.369 1410.7 C 204.659 1399.22 200.816 1383.27 195.549 1371.29 C 170.998 1300.86 150.638 1228.91 117.064 1162 C 114.543 1156.98 109.849 1143.76 109.126 1137.99 C 104.805 1103.46 97.8135 1064.42 105.105 1030.07 C 108.875 1014.94 123.299 991.771 129.17 976.625 L 129.666 975.325 C 115.662 909.526 109.546 843.441 110.238 776.304 C 110.37 763.496 109.387 742.251 111.337 730.462 z"/>
<path transform="translate(0,0)" fill="rgb(74,167,171)" d="M 183.248 670.41 C 235.254 656.218 281.652 654.905 335.401 654.856 C 378.011 654.862 420.611 656.186 463.14 658.826 C 476.802 659.493 492.209 660.998 505.78 662.783 C 534.294 666.535 564.914 668.329 593.051 673.418 C 617.688 678.282 645.421 682.843 670.371 686.739 C 697.083 691.564 860.41 722.052 872.144 738.809 C 878.853 748.391 873.972 800.511 871.1 812.438 C 868.91 838.249 865.902 864.038 863.112 889.792 C 860.405 914.773 858.049 951.455 849.664 974.392 C 846.047 984.287 841.024 991.374 832.963 998.128 C 795.523 1029.5 651.888 1086.74 602.421 1098.62 C 589.005 1101.84 574.407 1104.36 560.584 1103 C 545.581 1101.52 529.118 1087.2 519.91 1076.14 C 519.823 1076.04 519.753 1075.92 519.675 1075.81 C 502.042 1057.71 484.121 1037.87 466.679 1019.38 C 432.706 984.435 390.537 993.168 345.686 989.402 C 314.222 988.152 282.531 986.498 251.064 987.275 C 226.088 987.892 218.517 993.379 203.885 1012.32 C 199.053 1021.5 191.287 1033.3 185.701 1042.18 C 153.849 958.981 144.569 845.558 145.805 756.911 C 146.146 732.464 146.018 707.331 148.774 683.046 C 157.547 677.906 173.062 673.622 183.248 670.41 z"/>
<path transform="translate(0,0)" fill="rgb(111,206,202)" d="M 183.248 670.41 C 235.254 656.218 281.652 654.905 335.401 654.856 C 378.011 654.862 420.611 656.186 463.14 658.826 C 455.082 671.16 451.488 693.491 444.769 708.041 L 444.099 708.134 C 433.621 742.898 417.689 782.673 405.062 816.77 C 390.631 856.13 376.904 895.746 363.887 935.597 C 361.413 943.144 346.468 984.564 345.686 989.402 C 314.222 988.152 282.531 986.498 251.064 987.275 C 226.088 987.892 218.517 993.379 203.885 1012.32 C 199.053 1021.5 191.287 1033.3 185.701 1042.18 C 153.849 958.981 144.569 845.558 145.805 756.911 C 146.146 732.464 146.018 707.331 148.774 683.046 C 157.547 677.906 173.062 673.622 183.248 670.41 z"/>
<path transform="translate(0,0)" fill="rgb(218,246,244)" d="M 183.248 670.41 C 181.153 682.631 179.289 697.811 178.583 710.223 L 178.972 711.114 C 182.255 713.229 221.636 707.7 228.448 706.889 C 236.296 705.5 255.459 705.198 264.223 704.847 C 256.215 731.726 245.659 758.303 237.21 785.027 C 227.254 816.519 218.658 848.33 208.747 879.94 C 203.41 896.964 192.956 928.531 190.192 945.26 C 188.667 954.487 199.985 1003.21 203.885 1012.32 C 199.053 1021.5 191.287 1033.3 185.701 1042.18 C 153.849 958.981 144.569 845.558 145.805 756.911 C 146.146 732.464 146.018 707.331 148.774 683.046 C 157.547 677.906 173.062 673.622 183.248 670.41 z"/>
<path transform="translate(0,0)" fill="rgb(111,206,202)" d="M 178.583 710.223 L 178.972 711.114 C 182.255 713.229 221.636 707.7 228.448 706.889 C 224.863 719.506 220.212 732.362 215.944 744.835 C 201.926 785.802 193.328 830.989 179.093 871.553 C 179.128 827.726 174.345 783.761 176.718 739.858 C 176.965 735.28 177.216 713.73 178.583 710.223 z"/>
<path transform="translate(0,0)" fill="rgb(57,142,153)" d="M 183.248 670.41 C 235.254 656.218 281.652 654.905 335.401 654.856 C 378.011 654.862 420.611 656.186 463.14 658.826 C 455.082 671.16 451.488 693.491 444.769 708.041 L 444.099 708.134 C 432.874 706.078 400.069 705.465 387.832 705.05 C 360.182 703.981 332.512 703.581 304.843 703.85 C 293.054 703.907 275.512 703.607 264.223 704.847 C 255.459 705.198 236.296 705.5 228.448 706.889 C 221.636 707.7 182.255 713.229 178.972 711.114 L 178.583 710.223 C 179.289 697.811 181.153 682.631 183.248 670.41 z"/>
<path transform="translate(0,0)" fill="rgb(74,167,171)" d="M 463.14 658.826 C 476.802 659.493 492.209 660.998 505.78 662.783 C 534.294 666.535 564.914 668.329 593.051 673.418 C 590.419 683.095 577.737 717.85 577.608 722.79 L 578.886 723.381 C 578.129 723.753 577.372 724.125 576.615 724.497 C 540.036 816.477 506.861 909.739 470.957 1001.98 C 468.099 1009.32 468.101 1012.32 466.679 1019.38 C 432.706 984.435 390.537 993.168 345.686 989.402 C 346.468 984.564 361.413 943.144 363.887 935.597 C 376.904 895.746 390.631 856.13 405.062 816.77 C 417.689 782.673 433.621 742.898 444.099 708.134 L 444.769 708.041 C 451.488 693.491 455.082 671.16 463.14 658.826 z"/>
<path transform="translate(0,0)" fill="rgb(42,119,135)" d="M 463.14 658.826 C 476.802 659.493 492.209 660.998 505.78 662.783 C 534.294 666.535 564.914 668.329 593.051 673.418 C 590.419 683.095 577.737 717.85 577.608 722.79 C 532.472 718.578 491.785 710.825 444.769 708.041 C 451.488 693.491 455.082 671.16 463.14 658.826 z"/>
<path transform="translate(0,0)" fill="rgb(111,206,202)" d="M 593.051 673.418 C 617.688 678.282 645.421 682.843 670.371 686.739 C 667.581 692.168 652.619 734.206 653.332 737.531 L 652.137 737.492 C 642.888 762.281 632.703 786.632 623.383 811.42 C 601.936 868.457 581.368 924.861 558.835 981.493 L 534.295 1042.49 C 532.115 1048.02 523.291 1073.3 519.675 1075.81 C 502.042 1057.71 484.121 1037.87 466.679 1019.38 C 468.101 1012.32 468.099 1009.32 470.957 1001.98 C 506.861 909.739 540.036 816.477 576.615 724.497 C 577.372 724.125 578.129 723.753 578.886 723.381 L 577.608 722.79 C 577.737 717.85 590.419 683.095 593.051 673.418 z"/>
<path transform="translate(0,0)" fill="rgb(57,142,153)" d="M 593.051 673.418 C 617.688 678.282 645.421 682.843 670.371 686.739 C 667.581 692.168 652.619 734.206 653.332 737.531 L 652.137 737.492 C 636.061 732.275 596.397 726.372 578.886 723.381 L 577.608 722.79 C 577.737 717.85 590.419 683.095 593.051 673.418 z"/>
<path transform="translate(0,0)" fill="rgb(42,119,135)" d="M 670.371 686.739 C 697.083 691.564 860.41 722.052 872.144 738.809 C 878.853 748.391 873.972 800.511 871.1 812.438 C 871.239 809.049 871.544 807.908 870.355 804.842 C 830.929 785.257 778.158 770.347 735.757 757.928 C 712.318 751.063 677.189 740.75 653.332 737.531 C 652.619 734.206 667.581 692.168 670.371 686.739 z"/>
<path transform="translate(0,0)" fill="rgb(181,182,183)" d="M 1066.66 819.809 C 1075.07 744.678 1094.26 684.113 1145.45 626.495 C 1232.94 528.016 1377.33 508.074 1477.98 598.965 C 1536.71 652.88 1571.91 727.709 1576 807.329 C 1578.93 822.606 1578.1 863.749 1574.8 879.244 C 1574.91 890.179 1570.43 907.463 1567.78 918.127 C 1539.39 1032.48 1446.9 1137.79 1321.86 1137.84 C 1258 1137.87 1199.95 1110.88 1154.08 1066.73 C 1126.19 1040.51 1087.42 984.12 1080.99 946.892 C 1066.83 906.55 1065.67 875.161 1066.09 833.509 C 1065.94 828.924 1066.34 824.384 1066.66 819.809 z"/>
<path transform="translate(0,0)" fill="rgb(33,37,55)" d="M 1226.82 647.872 C 1315.92 578.459 1425.49 589.933 1496.5 678.06 C 1579.62 781.229 1558.51 955.483 1453.42 1035.71 C 1415.6 1065.17 1367.54 1078.24 1320 1071.97 C 1268.92 1064.93 1222.81 1037.64 1192.06 996.253 C 1155.44 947.908 1140.85 896.398 1140.03 836.489 C 1140.28 779.333 1158.43 728.273 1191.95 682.531 C 1199.82 673.626 1217.98 655.631 1226.82 647.872 z"/>
<path transform="translate(0,0)" fill="rgb(237,142,73)" d="M 1344.59 817.31 C 1343.1 797.734 1342.74 699.875 1347.91 688.708 C 1349.72 687.105 1351.47 685.959 1354.01 686.004 C 1356.68 686.051 1359.57 687.313 1361.31 689.369 C 1367.6 696.793 1364.93 774.773 1364.05 789.381 C 1364.66 798.714 1364.28 809.593 1364.19 819.054 L 1374.29 831.708 C 1386.49 831.9 1430.54 827.545 1438.04 835.252 C 1439.43 836.674 1440.32 838.643 1440.29 840.648 C 1440.23 844.345 1438.04 849.223 1435.37 851.786 C 1431.38 855.605 1381.38 854.087 1372.38 854.528 C 1367.26 869.397 1349.78 873.324 1338.36 862.241 C 1333.24 857.225 1330.36 850.353 1330.37 843.184 C 1330.46 831.764 1337.11 824.701 1344.59 817.31 z"/>
<path transform="translate(0,0)" fill="rgb(219,131,71)" d="M 1372.38 854.528 C 1371.36 848.407 1374.34 839.447 1369.47 831.454 C 1364.95 824.024 1360.88 822.951 1353.03 820.622 L 1352.89 819.979 C 1353.48 819.97 1357.66 819.782 1358.02 819.841 C 1367.47 821.414 1358.7 795.58 1364.05 789.381 C 1364.66 798.714 1364.28 809.593 1364.19 819.054 L 1374.29 831.708 C 1386.49 831.9 1430.54 827.545 1438.04 835.252 C 1439.43 836.674 1440.32 838.643 1440.29 840.648 C 1440.23 844.345 1438.04 849.223 1435.37 851.786 C 1431.38 855.605 1381.38 854.087 1372.38 854.528 z"/>
<path transform="translate(0,0)" fill="rgb(82,53,47)" d="M 1351.3 832.756 C 1356.02 833.965 1358 834.472 1359.94 839.055 C 1360.09 845.932 1357.53 847.978 1353.23 853.402 C 1341.83 847.705 1341.72 840.4 1351.3 832.756 z"/>
<path transform="translate(0,0)" fill="rgb(55,81,120)" d="M 1196.42 754.46 C 1190.59 755.455 1186.51 756.816 1183.88 750.71 C 1184.22 745.429 1186.78 743.168 1188.5 738.51 C 1202.33 701.03 1232.43 672.049 1265.46 650.883 C 1270.57 647.607 1275.77 643.386 1281.93 642.118 L 1282.16 642.754 C 1275.68 646.055 1253.82 658.783 1249.97 663.871 L 1250.76 664.315 C 1267.72 662.867 1275 640.361 1300.33 646.871 C 1302.68 649.051 1302.61 648.92 1304.01 651.781 L 1302.26 651.944 L 1300.15 649.659 C 1295.11 647.942 1277.16 649.601 1275.75 654.349 C 1273.23 662.803 1275.05 684.437 1284.7 687.502 C 1287.86 685.764 1289.45 682.448 1291.49 679.291 C 1294 681.55 1294 681.376 1295.14 684.492 C 1293.73 687.652 1292.33 689.827 1293.06 692.968 C 1296.74 692.639 1296.47 693.301 1298.36 691.282 C 1297.55 685.428 1296.79 684.443 1301.08 680.322 L 1302 681.496 C 1300.51 684.135 1299.63 685.022 1300.06 687.991 C 1302.06 689.962 1301.36 689.342 1305.03 689.508 C 1302.67 693.017 1289.69 695.807 1284.86 697.337 C 1280.76 701.731 1278.4 704.164 1273.08 707.166 L 1272.43 707.834 C 1261.35 719.011 1235.37 739.838 1229.33 754.601 C 1228.72 759.367 1225.14 764.04 1222.48 768.298 C 1212.54 764.873 1205.3 760.052 1196.42 754.46 z"/>
<path transform="translate(0,0)" fill="rgb(200,199,198)" d="M 1267.86 668.848 C 1273.73 676.636 1282.17 688.218 1284.86 697.337 C 1280.76 701.731 1278.4 704.164 1273.08 707.166 C 1266.2 699.711 1259.02 687.032 1253.76 678.15 C 1257.95 674.928 1263.32 671.719 1267.86 668.848 z"/>
<path transform="translate(0,0)" fill="rgb(181,182,183)" d="M 1196.42 754.46 C 1200.04 738.139 1204.24 736.089 1218.7 746.644 C 1222.19 749.196 1225.86 751.975 1229.33 754.601 C 1228.72 759.367 1225.14 764.04 1222.48 768.298 C 1212.54 764.873 1205.3 760.052 1196.42 754.46 z"/>
<path transform="translate(0,0)" fill="rgb(181,182,183)" d="M 1349.05 1002.23 C 1353.22 1002.63 1357.49 1002.52 1359.03 1007.29 C 1362.17 1017.02 1361.08 1029.41 1358.15 1039.05 C 1357.65 1040.7 1355.53 1040.84 1353.94 1041.35 C 1350.51 1041.31 1343.78 1042.04 1342.56 1038.27 C 1339.5 1028.85 1339.93 1015.76 1342.74 1006.25 C 1343.63 1003.25 1346.55 1003 1349.05 1002.23 z"/>
<path transform="translate(0,0)" fill="rgb(237,142,73)" d="M 1347.73 636.163 C 1349.23 636.146 1354.53 636.088 1355.52 636.593 C 1365.31 641.601 1363.15 659.662 1360.7 668.57 C 1360.17 670.524 1358.24 670.699 1356.78 671.173 C 1352.73 671.791 1347.56 672.2 1343.39 672.637 C 1341.97 664.06 1340.06 648.959 1342.33 640.542 C 1343.1 637.693 1345.32 637.267 1347.73 636.163 z"/>
<path transform="translate(0,0)" fill="rgb(181,182,183)" d="M 1185.57 832.435 C 1192.67 831.982 1213.01 831.375 1207.93 846.236 C 1206.12 851.536 1202.14 851.183 1197.25 851.572 C 1190.07 851.825 1169.81 854.917 1170.34 843.49 C 1170.84 832.637 1177.09 832.712 1185.57 832.435 z"/>
<path transform="translate(0,0)" fill="rgb(183,96,54)" d="M 1493.45 831.444 C 1506.15 830.606 1527.52 828.565 1517.82 849.658 C 1516.94 851.556 1515.11 851.54 1513.25 852.007 C 1500.51 851.903 1480.35 857.329 1486.88 835.371 C 1487.55 833.096 1491.4 832.085 1493.45 831.444 z"/>
<path transform="translate(0,0)" fill="rgb(181,182,183)" d="M 1272.38 976.472 C 1293.87 980.461 1276.06 1007.35 1267.85 1014.68 C 1262.3 1012.1 1259.92 1010.72 1254.77 1007.37 C 1258.52 997.045 1265.76 985.211 1272.38 976.472 z"/>
<path transform="translate(0,0)" fill="rgb(181,182,183)" d="M 1217.69 913.808 C 1225.97 913.693 1227.03 919.456 1229.97 926.053 C 1222.86 933.89 1214.51 938.588 1205.31 943.549 L 1202.55 943.741 C 1197.55 940.408 1196.59 935.961 1194.54 930.345 C 1201.64 925 1210.14 918.191 1217.69 913.808 z"/>
<path transform="translate(0,0)" fill="rgb(181,182,183)" d="M 1425.4 974.143 L 1427 974.116 C 1431.45 977.56 1440.66 996.789 1443.65 1002.6 C 1440.08 1005.4 1435.47 1008.22 1431.61 1010.74 L 1430.2 1010.43 C 1422.46 1003.13 1417 990.626 1413.5 980.802 C 1416.8 978.407 1421.69 976.079 1425.4 974.143 z"/>
<path transform="translate(0,0)" fill="rgb(181,182,183)" d="M 1429.7 668.438 C 1435.14 670.452 1439.66 674.527 1444.18 678.158 C 1438.68 687.448 1433.45 696.616 1427.17 705.405 C 1423.31 706.109 1417.49 701.329 1413.86 698.953 C 1418.79 686.568 1422.59 679.441 1429.7 668.438 z"/>
<path transform="translate(0,0)" fill="rgb(181,182,183)" d="M 1489.89 737.784 C 1509.99 751.245 1486.23 763.797 1473.24 767.407 C 1468.95 765.886 1466.62 758.625 1464.94 754.603 C 1470.55 750.123 1483.44 742.077 1489.89 737.784 z"/>
<path transform="translate(0,0)" fill="rgb(181,182,183)" d="M 1471.4 911.781 C 1481.19 912.769 1491.19 921.246 1498.38 927.491 C 1495.81 931.726 1492.76 935.577 1489.79 939.546 C 1487.04 939.285 1475.08 933.387 1472.4 931.253 C 1462.54 923.424 1465.1 918.749 1471.4 911.781 z"/>
<path transform="translate(0,0)" fill="rgb(247,247,247)" d="M 1066.66 819.809 C 1075.07 744.678 1094.26 684.113 1145.45 626.495 C 1232.94 528.016 1377.33 508.074 1477.98 598.965 C 1536.71 652.88 1571.91 727.709 1576 807.329 C 1574.32 811.138 1574.47 815.139 1574.48 819.257 C 1571.07 813.9 1566.16 785.019 1564.7 776.879 C 1547.43 680.476 1468.31 576.403 1365.38 563.555 C 1306.33 555.683 1246.59 571.938 1199.67 608.649 C 1205.36 612.721 1214.55 618.688 1218.61 623.998 C 1222.82 629.494 1222.84 642.009 1226.82 647.872 C 1217.98 655.631 1199.82 673.626 1191.95 682.531 C 1158.43 728.273 1140.28 779.333 1140.03 836.489 C 1118.3 836.617 1087.06 837.068 1066.09 833.509 C 1065.94 828.924 1066.34 824.384 1066.66 819.809 z"/>
<path transform="translate(0,0)" fill="rgb(200,199,198)" d="M 1147.36 658.96 C 1159.94 678.105 1171.6 676.804 1191.95 682.531 C 1158.43 728.273 1140.28 779.333 1140.03 836.489 C 1118.3 836.617 1087.06 837.068 1066.09 833.509 C 1065.94 828.924 1066.34 824.384 1066.66 819.809 C 1067.88 824.832 1067.14 828.019 1068.95 831.228 L 1070.03 831.36 C 1070.97 827.696 1070.04 831.572 1070.51 828.965 C 1081.3 768.2 1103.7 703.52 1147.36 658.96 z"/>
<path transform="translate(0,0)" fill="url(#Gradient12)" d="M 1560.99 867.334 C 1566.41 870.539 1569.05 868.96 1573.12 872.052 C 1573.61 874.837 1574.03 876.519 1574.8 879.244 C 1574.91 890.179 1570.43 907.463 1567.78 918.127 C 1539.39 1032.48 1446.9 1137.79 1321.86 1137.84 C 1258 1137.87 1199.95 1110.88 1154.08 1066.73 C 1126.19 1040.51 1087.42 984.12 1080.99 946.892 C 1107.17 960.366 1120.51 963.815 1150.33 965.933 C 1159.22 976.695 1169.52 993.621 1178.67 1005.5 C 1206.69 1042.6 1245.47 1070.15 1289.72 1084.42 C 1405.63 1120.89 1515.55 1030.06 1547.54 923.868 C 1553.03 905.637 1554.97 886.042 1560.57 868.613 L 1560.99 867.334 z"/>
<path transform="translate(0,0)" fill="rgb(218,246,244)" d="M 460.113 574.471 C 467.65 544.986 477.88 521.72 489.686 494.282 C 524.185 414.106 577.806 337.815 643.927 280.52 C 743.564 194.182 881.146 134.747 1014.91 145.842 C 1051.34 148.192 1083.41 157.371 1118.53 168.376 C 1232.59 204.108 1342.29 265.897 1427.26 350.556 C 1434.77 358.039 1436.84 366.234 1436.09 376.405 C 1434.34 395.465 1432.61 408.991 1426.05 427.404 C 1354.25 352.705 1229.3 296.074 1125.1 294.15 C 1030.82 293.329 939.993 329.576 872.185 395.081 C 821.06 444.483 790.27 484.997 758.956 550.325 C 749.744 569.543 742.339 593.442 733.952 610.703 C 721.239 607.712 708.038 606.465 696.146 603.649 C 682.096 600.676 664.844 598.313 650.508 596.038 C 609.062 589.448 567.432 584.073 525.671 579.92 C 514.996 578.818 483.112 575.12 473.591 576.044 C 470.31 576.134 463.623 574.973 460.113 574.471 z"/>
<path transform="translate(0,0)" fill="url(#Gradient11)" d="M 864.255 179.511 C 904.161 170.354 939.65 164.572 981.624 166.001 C 1097.06 169.93 1211.59 219.363 1309.65 277.972 C 1339.75 295.964 1370.91 322.963 1398.68 344.661 C 1407.44 351.508 1428.73 371.92 1436.09 376.405 C 1434.34 395.465 1432.61 408.991 1426.05 427.404 C 1354.25 352.705 1229.3 296.074 1125.1 294.15 C 1030.82 293.329 939.993 329.576 872.185 395.081 C 821.06 444.483 790.27 484.997 758.956 550.325 C 749.744 569.543 742.339 593.442 733.952 610.703 C 721.239 607.712 708.038 606.465 696.146 603.649 C 699.115 600.617 717.199 554.054 721.787 544.747 C 727.3 533.565 735.418 516.621 741.123 504.862 C 753.924 478.48 776.129 456.141 790.123 431.986 C 810.805 405.259 849.629 366.651 876.707 346.33 C 887.765 341.873 905.679 325.528 918.374 320.077 C 923.356 317.938 944.531 307.76 947.93 305.381 C 945.009 305.379 945.214 305.352 942.616 303.957 C 940.668 299.82 940.425 296 938.749 291.741 C 931.213 272.586 923.872 249.914 911.565 233.482 C 909.294 230.448 897.241 221.422 893.41 218.192 C 888.004 213.635 888.282 212.517 883.328 207.323 C 877.36 201.065 862.747 192.963 860.933 183.743 C 860.676 182.437 863.024 180.734 864.255 179.511 z"/>
<path transform="translate(0,0)" fill="rgb(111,206,202)" d="M 473.591 576.044 C 476.688 561.565 485.985 544.675 491.493 530.378 C 517.837 462.003 557.235 400.96 605.357 345.951 C 612.064 338.285 621.295 331.253 628.787 324.215 C 646.331 374.293 678.15 395.566 730.706 402.595 C 743.433 404.469 760.032 404.269 771.447 411.02 C 777.831 414.795 784.51 426.19 790.123 431.986 C 776.129 456.141 753.924 478.48 741.123 504.862 C 735.418 516.621 727.3 533.565 721.787 544.747 C 717.199 554.054 699.115 600.617 696.146 603.649 C 682.096 600.676 664.844 598.313 650.508 596.038 C 609.062 589.448 567.432 584.073 525.671 579.92 C 514.996 578.818 483.112 575.12 473.591 576.044 z"/>
<path transform="translate(0,0)" fill="rgb(111,206,202)" d="M 707.751 254.255 C 732.56 232.968 787.076 206.101 818.137 193.509 C 830.876 188.345 850.81 182.845 864.255 179.511 C 863.024 180.734 860.676 182.437 860.933 183.743 C 862.747 192.963 877.36 201.065 883.328 207.323 C 888.282 212.517 888.004 213.635 893.41 218.192 C 897.241 221.422 909.294 230.448 911.565 233.482 C 923.872 249.914 931.213 272.586 938.749 291.741 C 940.425 296 940.668 299.82 942.616 303.957 C 945.214 305.352 945.009 305.379 947.93 305.381 C 944.531 307.76 923.356 317.938 918.374 320.077 C 905.679 325.528 887.765 341.873 876.707 346.33 C 873.257 344.982 853.55 346.23 848.272 346.085 C 784.764 344.343 716.341 327.447 707.751 254.255 z"/>
<path transform="translate(0,0)" fill="rgb(165,228,225)" d="M 783.616 250.377 C 791.439 248.838 806.734 252.622 813.102 257.297 C 825.525 266.418 829.359 285.164 819.222 297.412 C 810.935 307.425 801.429 309.449 789.238 310.965 C 785.335 310.842 781.595 310.682 777.655 309.967 C 750.651 305.064 730.857 273.361 761.802 256.112 C 768.922 252.143 775.445 251.319 783.616 250.377 z"/>
<path transform="translate(0,0)" fill="url(#Gradient10)" d="M 948.653 994.279 C 950.077 986.198 961.852 918.345 962.865 917.053 C 964.667 919.662 966.16 929.254 966.904 933.002 C 975.604 976.849 994.445 1010.98 1014.64 1050.15 C 1005.34 1074.57 984.592 1097.73 961.921 1110.32 C 936.664 1124.34 909.824 1136.5 883.703 1148.84 C 845.146 1167.31 806.438 1185.46 767.583 1203.29 C 727.058 1221.47 681.356 1233.85 664.598 1279 C 657.905 1297.04 655.777 1318.8 653.396 1337.93 C 649.393 1371.32 645.133 1404.68 640.617 1438.01 C 638.013 1456.94 636.118 1479.49 630.013 1497.14 C 619.369 1496.69 608.686 1495.95 598.335 1491.9 C 563.235 1478.16 530.582 1442.55 504.076 1415.98 C 482.822 1394.66 480.596 1389.34 451.498 1376.47 C 442.735 1335.21 438.079 1292.59 429.178 1251.06 C 424.003 1226.92 425.125 1191.87 394.052 1185.89 C 378.435 1183.39 358.542 1183.63 342.638 1183.15 L 245.383 1180.76 C 244.425 1173.92 242.745 1167.2 241.205 1160.47 C 234.64 1131.78 228.65 1101 228.935 1071.46 L 228.804 1063.25 C 228.266 1057.82 228.374 1052.34 229.127 1046.94 C 230.281 1039.07 232.934 1030.85 239.494 1025.9 C 242.497 1024.49 246.828 1022.88 250.799 1022.75 C 306.118 1020.89 368.014 1021.71 422.643 1030.78 C 426.232 1031.37 434.255 1038.72 436.894 1040.99 C 429.845 1045.17 423.957 1049.18 418.014 1054.91 C 431.569 1069.27 446.3 1082.5 460.349 1096.38 C 489.76 1125.42 528.427 1167.57 563.959 1187.17 C 571.5 1191.33 578.594 1193.43 587.226 1193.69 C 641.204 1195.33 794.878 1128.6 847.564 1100.38 C 871.085 1087.79 895.922 1073.79 915.354 1055.24 C 922.137 1048.76 928.727 1041.37 933.546 1033.29 C 939.898 1021.55 946.488 1007.56 948.653 994.279 z"/>
<path transform="translate(0,0)" fill="url(#Gradient9)" d="M 948.653 994.279 C 951.534 996.117 952.983 996.238 953.82 999.961 C 955.576 1007.77 953.453 1027.26 948.459 1033.12 C 939.241 1057.19 925.818 1069.24 904.807 1083.15 C 875.346 1102.64 844.372 1117.66 812.714 1133.11 C 789.065 1144.91 765.197 1156.26 741.123 1167.16 C 700.807 1185.14 646.155 1205.58 601.183 1212.06 C 539.518 1220.96 488.694 1142.78 445.897 1108.63 C 431.133 1096.84 416.692 1078.67 396.513 1073.71 C 367.754 1066.63 334.782 1068.83 305.132 1067.63 C 288.237 1066.82 241.722 1064.91 228.935 1071.46 L 228.804 1063.25 C 228.266 1057.82 228.374 1052.34 229.127 1046.94 C 230.281 1039.07 232.934 1030.85 239.494 1025.9 C 242.497 1024.49 246.828 1022.88 250.799 1022.75 C 306.118 1020.89 368.014 1021.71 422.643 1030.78 C 426.232 1031.37 434.255 1038.72 436.894 1040.99 C 429.845 1045.17 423.957 1049.18 418.014 1054.91 C 431.569 1069.27 446.3 1082.5 460.349 1096.38 C 489.76 1125.42 528.427 1167.57 563.959 1187.17 C 571.5 1191.33 578.594 1193.43 587.226 1193.69 C 641.204 1195.33 794.878 1128.6 847.564 1100.38 C 871.085 1087.79 895.922 1073.79 915.354 1055.24 C 922.137 1048.76 928.727 1041.37 933.546 1033.29 C 939.898 1021.55 946.488 1007.56 948.653 994.279 z"/>
<path transform="translate(0,0)" fill="rgb(165,203,223)" d="M 239.494 1025.9 C 247.477 1033.73 237.861 1057.08 233.961 1066.27 C 231.418 1066.19 231.303 1065.31 228.804 1063.25 C 228.266 1057.82 228.374 1052.34 229.127 1046.94 C 230.281 1039.07 232.934 1030.85 239.494 1025.9 z"/>
<path transform="translate(0,0)" fill="rgb(94,128,168)" d="M 948.653 994.279 C 951.534 996.117 952.983 996.238 953.82 999.961 C 955.576 1007.77 953.453 1027.26 948.459 1033.12 C 946.197 1028.73 954.283 1019.11 951.518 1009.49 L 949.306 1008.9 C 941.362 1012.75 942.961 1028.57 933.546 1033.29 C 939.898 1021.55 946.488 1007.56 948.653 994.279 z"/>
<path transform="translate(0,0)" fill="url(#Gradient8)" d="M 389.468 452.248 C 405.488 429.519 415.112 404.772 429.542 379.759 C 464.796 318.422 510.608 263.794 564.867 218.394 C 633.631 160.682 713.573 117.794 799.684 92.4172 C 858.291 75.3866 876.481 78.2514 936.256 83.0674 C 958.17 80.0781 986.039 93.933 1003.07 106.792 C 1007.87 110.433 1012.55 114.227 1017.11 118.168 C 866.46 109.152 726.696 169.294 615.812 268.796 C 524.162 351.041 464.909 462.596 431.54 579.942 C 428.781 589.644 428.486 602.147 424.952 611.292 C 410.296 599.462 404.507 590.912 387.75 581.126 C 376.33 581.013 360.64 581.269 349.628 580.154 C 302.042 579.99 253.422 580.216 205.988 584.322 C 199.738 586.574 196.175 586.383 189.512 586.7 C 193.318 565.747 200.628 545.062 206.553 524.759 C 232.438 436.063 275.303 352.886 330.757 279.125 C 342.139 263.986 351.834 251.012 365.725 237.839 L 369.147 240.309 C 355.116 258.319 341.813 276.562 329.46 295.783 C 314.177 319.565 259.626 413.164 262.974 439.082 C 263.913 446.352 266.959 453.462 273.013 457.897 C 276.48 460.437 280.766 461.917 284.974 462.648 C 299.44 465.159 355.623 465.959 369.04 463.275 C 377.33 461.616 383.525 458.17 389.468 452.248 z"/>
<path transform="translate(0,0)" fill="rgb(55,81,120)" d="M 936.256 83.0674 C 958.17 80.0781 986.039 93.933 1003.07 106.792 C 1007.87 110.433 1012.55 114.227 1017.11 118.168 C 866.46 109.152 726.696 169.294 615.812 268.796 C 524.162 351.041 464.909 462.596 431.54 579.942 C 428.781 589.644 428.486 602.147 424.952 611.292 C 410.296 599.462 404.507 590.912 387.75 581.126 C 376.33 581.013 360.64 581.269 349.628 580.154 C 357.056 579.514 368.982 579.976 376.749 580.047 C 406.46 490.528 442.203 414.941 497.623 338.072 C 511.19 319.254 524.959 300.433 540.248 282.968 C 608.558 205.852 695.541 147.588 792.851 113.768 C 827.11 101.586 860.213 94.34 895.994 88.4928 C 905.421 86.9523 930.03 87.0126 936.256 83.0674 z"/>
<path transform="translate(0,0)" fill="url(#Gradient7)" d="M 365.725 237.839 L 369.147 240.309 C 355.116 258.319 341.813 276.562 329.46 295.783 C 314.177 319.565 259.626 413.164 262.974 439.082 C 263.913 446.352 266.959 453.462 273.013 457.897 C 276.48 460.437 280.766 461.917 284.974 462.648 C 299.44 465.159 355.623 465.959 369.04 463.275 C 377.33 461.616 383.525 458.17 389.468 452.248 C 393.988 458.176 400.411 453.777 399.164 458.964 C 397.457 466.061 386.199 473.6 380.019 475.998 C 359.719 483.875 289.914 481.996 270.067 478.127 L 269.206 477.412 C 263.962 472.989 258.437 466.283 254.097 460.847 C 252.053 458.286 252.361 455.056 249.685 453.231 C 246.221 459.942 238.685 480.417 235.9 488.145 C 224.552 519.759 214.572 551.848 205.988 584.322 C 199.738 586.574 196.175 586.383 189.512 586.7 C 193.318 565.747 200.628 545.062 206.553 524.759 C 232.438 436.063 275.303 352.886 330.757 279.125 C 342.139 263.986 351.834 251.012 365.725 237.839 z"/>
<path transform="translate(0,0)" fill="url(#Gradient6)" d="M 1015.26 337.401 C 1018.48 336.209 1022 334.807 1025.27 333.879 C 1071.88 379.194 1115.29 458.367 1134.9 520.21 C 1131.39 522.836 1127.85 525.428 1124.28 527.987 C 1113.53 538.795 1096.47 547.942 1084.78 558.808 C 1061.7 580.255 1040.48 603.454 1024.51 630.803 C 1016.43 644.696 1009.52 658.813 1001.21 672.894 C 982.963 663.473 955.894 659.165 936.013 653.108 C 919.134 647.966 900.837 645.255 883.795 640.427 C 843.136 630.682 802.288 621.74 761.276 613.607 C 765.387 602.023 769.904 590.589 774.82 579.324 C 823.737 468.646 900.803 381.715 1015.26 337.401 z"/>
<path transform="translate(0,0)" fill="rgb(55,81,120)" d="M 968.777 517.4 C 977.346 513.47 990.351 498.606 998.659 491.989 C 1026.3 469.97 1052.63 455.896 1086.01 445.614 C 1099.91 471.535 1114.25 500.374 1124.28 527.987 C 1113.53 538.795 1096.47 547.942 1084.78 558.808 C 1061.7 580.255 1040.48 603.454 1024.51 630.803 C 1016.43 644.696 1009.52 658.813 1001.21 672.894 C 982.963 663.473 955.894 659.165 936.013 653.108 C 919.134 647.966 900.837 645.255 883.795 640.427 C 889.811 633.023 894.32 623.956 898.981 615.658 C 910.55 595.063 923.619 575.77 937.86 556.942 C 941.155 552.587 946.898 545.796 948.134 540.57 C 956.4 532.646 961.645 526.195 968.777 517.4 z"/>
<path transform="translate(0,0)" fill="rgb(120,156,192)" d="M 948.134 540.57 C 915.734 553.395 884.474 555.231 871.087 515.504 C 858.178 477.198 888.17 431.624 925.659 421.271 C 951.41 414.159 979.684 420.711 987.116 449.806 C 993.787 475.272 980.774 496.191 968.777 517.4 C 961.645 526.195 956.4 532.646 948.134 540.57 z"/>
<path transform="translate(0,0)" fill="rgb(120,156,192)" d="M 1015.26 337.401 C 1018.48 336.209 1022 334.807 1025.27 333.879 C 1071.88 379.194 1115.29 458.367 1134.9 520.21 C 1131.39 522.836 1127.85 525.428 1124.28 527.987 C 1114.25 500.374 1099.91 471.535 1086.01 445.614 C 1076.17 422.137 1050.15 389.311 1035.82 367.953 C 1029.92 359.16 1018.63 347.043 1015.26 337.401 z"/>
<path transform="translate(0,0)" fill="url(#Gradient5)" d="M 1055.5 327.348 C 1071.75 325.201 1086.99 323.032 1103.36 322.67 C 1203.15 320.461 1297.72 357.287 1375.7 418.286 C 1400.18 437.431 1424.44 455.555 1436.59 484.817 C 1444.18 492.539 1460.49 537.299 1464.2 549.871 C 1426.71 529.948 1382.92 506.994 1342.78 492.631 C 1288.62 473.248 1209.54 483.624 1158.42 508.664 C 1144.46 473.475 1127.3 435.186 1108.5 402.519 C 1097.88 384.072 1083.63 365.276 1071.89 347.468 C 1064.56 339.927 1061.64 335.706 1055.5 327.348 z"/>
<path transform="translate(0,0)" fill="rgb(120,156,192)" d="M 1055.5 327.348 C 1071.75 325.201 1086.99 323.032 1103.36 322.67 C 1203.15 320.461 1297.72 357.287 1375.7 418.286 C 1400.18 437.431 1424.44 455.555 1436.59 484.817 C 1431.22 484.501 1420.75 474.311 1416.12 470.436 C 1327.36 396.066 1215.08 337.191 1096.21 344.434 C 1089.65 344.834 1077.21 344.051 1071.89 347.468 C 1064.56 339.927 1061.64 335.706 1055.5 327.348 z"/>
<path transform="translate(0,0)" fill="rgb(237,142,73)" d="M 1078.72 1018.3 C 1080.92 1021.52 1085.64 1028.11 1085.99 1031.71 L 1086.21 1034.43 C 1091.87 1038.18 1118.19 1072.8 1126.34 1081.29 C 1140.98 1096.54 1150.71 1104.13 1167.39 1117.46 C 1159.96 1124.24 1144.19 1138.87 1136.13 1144.38 C 1109.44 1167.89 1078.06 1192.17 1054.14 1218.38 C 1048.62 1224.43 1049.08 1250.09 1048.88 1258.48 C 1049.4 1274.89 1046.4 1324.8 1050.84 1335.85 C 1054.06 1343.88 1060.63 1350.35 1066.84 1356.14 C 1071.84 1360.77 1076.87 1365.35 1081.94 1369.9 C 1064.57 1381.44 1032.3 1404.02 1010.89 1397.28 C 970.625 1384.61 940.635 1370.63 943.102 1324.43 C 941.941 1308.48 942.995 1281.59 942.682 1265.13 C 942.419 1251.28 942.154 1217.98 944.194 1205.18 C 945.165 1202.1 945.753 1200.79 947.138 1197.86 C 952.381 1186.45 966.061 1171.61 974.668 1162.12 C 1002.31 1132.45 1022.37 1111.53 1044.66 1077.58 C 1047.26 1072.53 1052.29 1064.91 1055.4 1059.87 C 1050.73 1056.88 1047.46 1046.04 1044.61 1040.89 C 1043.61 1039.08 1045 1037.08 1045.9 1035.67 C 1055.73 1030.25 1066.48 1024.29 1076.98 1020.45 L 1078.72 1018.3 z"/>
<path transform="translate(0,0)" fill="rgb(183,96,54)" d="M 943.102 1324.43 L 944.566 1331.63 C 951.927 1341.27 1035.2 1333.15 1045.97 1328.19 C 1049.88 1323.06 1047.5 1271.63 1048.76 1259.59 L 1048.88 1258.48 C 1049.4 1274.89 1046.4 1324.8 1050.84 1335.85 C 1054.06 1343.88 1060.63 1350.35 1066.84 1356.14 C 1071.84 1360.77 1076.87 1365.35 1081.94 1369.9 C 1064.57 1381.44 1032.3 1404.02 1010.89 1397.28 C 970.625 1384.61 940.635 1370.63 943.102 1324.43 z"/>
<path transform="translate(0,0)" fill="rgb(183,96,54)" d="M 1078.72 1018.3 C 1080.92 1021.52 1085.64 1028.11 1085.99 1031.71 L 1086.21 1034.43 C 1091.87 1038.18 1118.19 1072.8 1126.34 1081.29 C 1140.98 1096.54 1150.71 1104.13 1167.39 1117.46 C 1159.96 1124.24 1144.19 1138.87 1136.13 1144.38 C 1128.77 1134.59 1112.44 1124.43 1102.07 1117.46 C 1090.98 1108.69 1056.14 1082.02 1044.66 1077.58 C 1047.26 1072.53 1052.29 1064.91 1055.4 1059.87 C 1050.73 1056.88 1047.46 1046.04 1044.61 1040.89 C 1043.61 1039.08 1045 1037.08 1045.9 1035.67 C 1055.73 1030.25 1066.48 1024.29 1076.98 1020.45 L 1078.72 1018.3 z"/>
<path transform="translate(0,0)" fill="rgb(22,21,21)" d="M 1078.72 1018.3 C 1080.92 1021.52 1085.64 1028.11 1085.99 1031.71 L 1086.21 1034.43 C 1072.61 1042.14 1064.39 1047.15 1055.4 1059.87 C 1050.73 1056.88 1047.46 1046.04 1044.61 1040.89 C 1043.61 1039.08 1045 1037.08 1045.9 1035.67 C 1055.73 1030.25 1066.48 1024.29 1076.98 1020.45 L 1078.72 1018.3 z"/>
<path transform="translate(0,0)" fill="rgb(82,53,47)" d="M 1078.72 1018.3 C 1080.92 1021.52 1085.64 1028.11 1085.99 1031.71 C 1077.72 1029.73 1078.41 1028.75 1076.98 1020.45 L 1078.72 1018.3 z"/>
<path transform="translate(0,0)" fill="rgb(248,174,97)" d="M 1044.66 1077.58 C 1056.14 1082.02 1090.98 1108.69 1102.07 1117.46 C 1093.9 1125.1 1026.95 1183.89 1023.79 1184.98 C 1016.76 1177.93 987.914 1169.55 974.668 1162.12 C 1002.31 1132.45 1022.37 1111.53 1044.66 1077.58 z"/>
<path transform="translate(0,0)" fill="rgb(243,228,183)" d="M 974.668 1162.12 C 987.914 1169.55 1016.76 1177.93 1023.79 1184.98 C 1017.17 1190.52 1009.53 1202.55 1004.49 1210.08 C 994.355 1206.79 960.91 1202.91 948.889 1200.07 C 948.305 1199.33 947.721 1198.59 947.138 1197.86 C 952.381 1186.45 966.061 1171.61 974.668 1162.12 z"/>
<path transform="translate(0,0)" fill="rgb(248,174,97)" d="M 944.194 1205.18 C 945.165 1202.1 945.753 1200.79 947.138 1197.86 C 947.721 1198.59 948.305 1199.33 948.889 1200.07 C 960.91 1202.91 994.355 1206.79 1004.49 1210.08 C 1003.83 1211.84 1003.12 1213.42 1002.35 1215.13 C 999.697 1216.36 951.72 1208.65 945.484 1207.29 L 944.194 1205.18 z"/>
<path transform="translate(0,0)" fill="rgb(50,60,82)" d="M 454.612 597.166 C 510.461 600.304 558.486 606.882 613.342 615.147 C 703.852 627.977 793.539 646.059 881.95 669.3 C 942.547 684.694 961.208 677.069 952.866 751.122 C 950.186 774.922 947.221 801.022 944.36 824.981 C 940.77 854.334 936.948 883.658 932.893 912.95 C 929.266 939.536 925.77 967.207 918.602 993.055 C 914.741 1006.98 908.992 1021.68 899.022 1032.27 C 890.047 1041.81 875.363 1053.01 864.227 1059.78 C 812.231 1091.38 652.445 1164.89 596.505 1166.21 C 579.724 1165.88 566.246 1150.68 553.603 1140.4 C 577.596 1138.29 595.455 1136.72 618.911 1130.01 C 667.03 1116.25 712.136 1096.49 757.697 1075.99 C 788.677 1062.05 825.209 1047.13 853.273 1027.85 C 884.179 1006.22 888.472 958.112 892.949 923.311 C 899.511 872.298 904.608 819.954 907.853 768.609 C 908.298 759.287 908.586 749.425 907.72 740.231 C 905.16 713.078 889.862 703.837 865.279 697.068 C 852.423 693.528 838.772 689.727 825.751 686.301 C 741.803 664.062 656.454 647.496 570.282 636.715 C 530.049 631.739 492.24 629.257 452.182 625.421 C 451.984 618.255 450.227 601.925 454.612 597.166 z"/>
<path transform="translate(0,0)" fill="rgb(74,167,171)" d="M 665.968 1430.48 C 666.407 1419.83 669.549 1396.05 671.148 1385.02 C 675.248 1356.75 677.068 1317.22 688.411 1291.77 C 694.923 1276.9 705.368 1264.09 718.62 1254.71 C 729.552 1247.05 749.576 1238.26 762.389 1232.44 L 835.55 1199.76 C 852.435 1192.13 869.225 1184.28 885.919 1176.24 C 905.727 1166.56 923.983 1156.94 944.607 1149.01 C 938.886 1157.04 931.473 1164.76 924.814 1172.1 C 922.504 1177.08 921.024 1179.68 918.151 1184.34 C 905.206 1219.51 911.226 1247.45 909.713 1282.9 C 899.673 1288.49 872.259 1301.47 861.255 1305.48 C 848.975 1311.27 835.058 1317.81 822.735 1322.82 C 792.502 1335.1 774.204 1340.72 762.864 1373.98 C 758.586 1386.53 755.717 1398.19 752.52 1411.22 C 748.369 1428.14 743.934 1448.33 738.683 1464.59 C 715.414 1476.24 689.218 1483.2 664.635 1492.49 C 662.009 1493.41 661.215 1493.97 658.534 1493.23 C 658.487 1487.48 661.559 1465.82 662.593 1459.32 C 663.35 1450.82 664.349 1438.61 665.968 1430.48 z"/>
<path transform="translate(0,0)" fill="rgb(218,246,244)" d="M 665.968 1430.48 C 666.407 1419.83 669.549 1396.05 671.148 1385.02 C 675.248 1356.75 677.068 1317.22 688.411 1291.77 C 694.923 1276.9 705.368 1264.09 718.62 1254.71 C 729.552 1247.05 749.576 1238.26 762.389 1232.44 L 835.55 1199.76 C 852.435 1192.13 869.225 1184.28 885.919 1176.24 C 905.727 1166.56 923.983 1156.94 944.607 1149.01 C 938.886 1157.04 931.473 1164.76 924.814 1172.1 C 913.772 1175.22 864.778 1199.49 852.45 1205.38 C 826.681 1217.44 801.015 1229.71 775.455 1242.2 C 761.653 1249.03 743.138 1257.87 730.748 1266.55 C 719.972 1273.95 711.035 1283.73 704.626 1295.12 C 684.096 1331.77 683.331 1399.39 672.169 1440.21 L 670.78 1442.91 L 668.09 1442.04 C 665.476 1438.54 666.136 1435.35 665.968 1430.48 z"/>
<path transform="translate(0,0)" fill="rgb(57,142,153)" d="M 672.169 1440.21 C 694.614 1434.27 731.425 1416.29 752.52 1411.22 C 748.369 1428.14 743.934 1448.33 738.683 1464.59 C 715.414 1476.24 689.218 1483.2 664.635 1492.49 C 662.009 1493.41 661.215 1493.97 658.534 1493.23 C 658.487 1487.48 661.559 1465.82 662.593 1459.32 C 663.35 1450.82 664.349 1438.61 665.968 1430.48 C 666.136 1435.35 665.476 1438.54 668.09 1442.04 L 670.78 1442.91 L 672.169 1440.21 z"/>
<path transform="translate(0,0)" fill="rgb(74,167,171)" d="M 662.593 1459.32 L 663.727 1461.58 L 666.806 1461.97 C 667.209 1471 664.03 1487.64 664.635 1492.49 C 662.009 1493.41 661.215 1493.97 658.534 1493.23 C 658.487 1487.48 661.559 1465.82 662.593 1459.32 z"/>
<path transform="translate(0,0)" fill="rgb(165,228,225)" d="M 662.593 1459.32 C 663.35 1450.82 664.349 1438.61 665.968 1430.48 C 666.136 1435.35 665.476 1438.54 668.09 1442.04 L 670.78 1442.91 C 669.29 1449.12 667.558 1455.65 666.806 1461.97 L 663.727 1461.58 L 662.593 1459.32 z"/>
<path transform="translate(0,0)" fill="rgb(57,142,153)" d="M 918.151 1184.34 C 905.206 1219.51 911.226 1247.45 909.713 1282.9 C 899.673 1288.49 872.259 1301.47 861.255 1305.48 C 861.091 1302.15 862.77 1291.06 863.209 1287.11 C 865.924 1262.7 867.71 1240.81 881.556 1219.42 C 890.895 1204.99 900.448 1188.68 918.151 1184.34 z"/>
<path transform="translate(0,0)" fill="rgb(165,203,223)" d="M 342.388 310.961 C 355.934 285.098 382.093 251.102 401.706 228.871 C 429.634 197.215 468.103 160.051 504.395 137.756 C 518.38 129.165 547.47 121.777 563.54 116.84 C 634.458 95.0559 698.396 85.0604 772.08 80.0636 C 750.933 91.5926 719.917 102.079 696.847 111.726 C 671.651 124.389 643.608 137.996 620.367 153.733 C 584.14 178.263 549.011 205.653 518.323 236.829 C 515.922 239.268 511.939 243.72 509.223 245.314 C 485.228 270.919 467.168 293.165 446.002 320.978 C 442.218 328.106 432.599 340.743 427.829 348.189 C 419.898 360.568 411.981 374.045 403.439 385.827 C 375.718 386.821 331.824 386.614 304.186 384.734 C 311.593 367.869 330.917 323.895 342.388 310.961 z"/>
<path transform="translate(0,0)" fill="rgb(94,128,168)" d="M 509.223 245.314 C 506.254 244.17 490.177 243.278 487.284 243.858 C 483.257 244.665 407.673 242.636 418.815 229.965 C 440.54 205.259 470.437 182.003 495.737 160.402 C 504.303 153.09 517.758 147.828 528.405 144.506 C 581.492 127.786 636.577 121.255 690.569 109.144 C 693.475 108.492 694.887 110.202 696.847 111.726 C 671.651 124.389 643.608 137.996 620.367 153.733 C 584.14 178.263 549.011 205.653 518.323 236.829 C 515.922 239.268 511.939 243.72 509.223 245.314 z"/>
<path transform="translate(0,0)" fill="rgb(94,128,168)" d="M 342.388 310.961 C 352.941 317.103 426.305 317.081 445.639 320.909 L 446.002 320.978 C 442.218 328.106 432.599 340.743 427.829 348.189 C 419.898 360.568 411.981 374.045 403.439 385.827 C 375.718 386.821 331.824 386.614 304.186 384.734 C 311.593 367.869 330.917 323.895 342.388 310.961 z"/>
<path transform="translate(0,0)" fill="rgb(55,81,120)" d="M 237.175 1216.57 C 240.823 1210.6 244.854 1204.1 252.807 1204.15 C 292.124 1204.47 331.502 1205.96 370.823 1206.92 C 385.096 1207.26 390.315 1204.9 397.823 1217.66 C 402.202 1226.57 407.432 1271.88 410.119 1284.75 C 416.067 1313.22 425.109 1347.41 428.768 1375.93 C 390.261 1376.99 346.129 1373.31 307.265 1371.71 C 302.458 1371.52 278.856 1370.13 276.031 1369.34 C 272.051 1369.2 268.441 1369.51 265.042 1367.67 C 261.504 1361.99 254.699 1325.13 253.04 1315.94 C 247.571 1285.67 236.403 1247.01 237.175 1216.57 z"/>
<path transform="translate(0,0)" fill="rgb(120,156,192)" d="M 237.175 1216.57 C 240.823 1210.6 244.854 1204.1 252.807 1204.15 C 292.124 1204.47 331.502 1205.96 370.823 1206.92 C 385.096 1207.26 390.315 1204.9 397.823 1217.66 C 393.252 1221.72 389.132 1224 383.365 1226.16 C 377.691 1224.77 372.061 1224.02 366.241 1223.61 C 354.353 1222.76 262.404 1219.43 257.225 1222.48 C 254.926 1223.83 254.371 1225.67 253.931 1228.19 C 251.011 1244.93 267.55 1317.4 271.643 1339.25 C 273.465 1348.98 276.348 1359.45 276.031 1369.34 C 272.051 1369.2 268.441 1369.51 265.042 1367.67 C 261.504 1361.99 254.699 1325.13 253.04 1315.94 C 247.571 1285.67 236.403 1247.01 237.175 1216.57 z"/>
<path transform="translate(0,0)" fill="rgb(55,81,120)" d="M 1189.57 1130.28 C 1194.98 1134.32 1198.07 1136.47 1203.91 1139.78 C 1211.8 1141.61 1233.01 1148.06 1237.74 1154.36 C 1239.76 1161.87 1226.26 1180.04 1221.89 1187.21 C 1214.1 1200.72 1204.41 1213.72 1194.17 1225.49 C 1170.26 1252.99 1179.13 1280.8 1178.93 1315.69 C 1165.3 1323.19 1115.49 1351.74 1103.21 1356.02 C 1094.81 1350.22 1084.73 1342.63 1078.52 1334.36 C 1074.56 1329.7 1073.19 1325.55 1073.25 1319.43 C 1073.57 1290.71 1071.47 1258.33 1074.31 1229.98 C 1082.21 1218.96 1105.61 1200.62 1116.9 1191.27 L 1172.38 1145.55 C 1178.27 1140.64 1184 1135.55 1189.57 1130.28 z"/>
<path transform="translate(0,0)" fill="url(#Gradient4)" d="M 1172.38 1145.55 C 1181.49 1147.43 1181.42 1147.7 1184.74 1156.28 L 1177.64 1162.3 L 1121.56 1206.5 C 1111.25 1214.55 1095.69 1226.1 1086.29 1234.7 C 1084.31 1250.57 1088.4 1326.9 1080.46 1333.09 C 1079.71 1333.67 1079.41 1333.81 1078.52 1334.36 C 1074.56 1329.7 1073.19 1325.55 1073.25 1319.43 C 1073.57 1290.71 1071.47 1258.33 1074.31 1229.98 C 1082.21 1218.96 1105.61 1200.62 1116.9 1191.27 L 1172.38 1145.55 z"/>
<path transform="translate(0,0)" fill="rgb(42,61,95)" d="M 1189.57 1130.28 C 1194.98 1134.32 1198.07 1136.47 1203.91 1139.78 C 1211.8 1141.61 1233.01 1148.06 1237.74 1154.36 C 1239.76 1161.87 1226.26 1180.04 1221.89 1187.21 C 1215.9 1180.55 1181.08 1167.59 1177.64 1162.3 L 1184.74 1156.28 C 1181.42 1147.7 1181.49 1147.43 1172.38 1145.55 C 1178.27 1140.64 1184 1135.55 1189.57 1130.28 z"/>
<path transform="translate(0,0)" fill="rgb(94,128,168)" d="M 1189.57 1130.28 C 1194.98 1134.32 1198.07 1136.47 1203.91 1139.78 C 1197.61 1146.43 1192.33 1151.12 1184.74 1156.28 C 1181.42 1147.7 1181.49 1147.43 1172.38 1145.55 C 1178.27 1140.64 1184 1135.55 1189.57 1130.28 z"/>
<path transform="translate(0,0)" fill="rgb(218,246,244)" d="M 81.2054 617.252 C 110.844 484.377 187.488 369.754 291.768 283.479 L 295.93 286.581 C 279.521 311.336 263.948 336.635 249.236 362.435 C 244.598 370.465 232.801 390.962 229.56 399.116 C 207.529 449.03 184.24 505.334 171.852 558.5 C 170.381 564.81 167.179 578.024 166.631 584.148 C 147.024 590.402 127.53 597.004 108.157 603.951 C 99.0693 608.736 90.694 613.28 81.2054 617.252 z"/>
<path transform="translate(0,0)" fill="rgb(111,206,202)" d="M 108.157 603.951 C 114.382 563.766 186.964 403.747 229.56 399.116 C 207.529 449.03 184.24 505.334 171.852 558.5 C 170.381 564.81 167.179 578.024 166.631 584.148 C 147.024 590.402 127.53 597.004 108.157 603.951 z"/>
<path transform="translate(0,0)" fill="rgb(118,121,130)" d="M 426.426 1401.94 C 444.296 1401.22 454.766 1402.61 468.335 1415.62 C 505.676 1451.42 541.582 1497.39 590.014 1518.43 L 601.502 1523.13 C 580.812 1538.84 549.846 1563.28 525.201 1570.19 C 514.195 1573.28 496.425 1573.23 484.735 1572.83 C 452.77 1552.81 442.978 1513.59 434.878 1480.04 C 441.945 1467.96 424.464 1431.57 453.768 1420.29 C 444.464 1417.61 428.537 1419.04 417.587 1418.83 C 415.583 1416.37 412.278 1418.17 408.263 1417.48 C 414.523 1414.25 415.378 1412.92 417.448 1406.38 L 417.813 1405.2 C 420.416 1402.45 422.601 1402.57 426.426 1401.94 z"/>
<path transform="translate(0,0)" fill="url(#Gradient3)" d="M 426.426 1401.94 C 444.296 1401.22 454.766 1402.61 468.335 1415.62 C 505.676 1451.42 541.582 1497.39 590.014 1518.43 C 586.015 1522.41 581.927 1521.47 574.815 1522.97 C 533.029 1508.67 504.321 1467.35 475.027 1436.42 C 467.804 1428.8 463.16 1424.73 453.768 1420.29 C 444.464 1417.61 428.537 1419.04 417.587 1418.83 C 415.583 1416.37 412.278 1418.17 408.263 1417.48 C 414.523 1414.25 415.378 1412.92 417.448 1406.38 L 417.813 1405.2 C 420.416 1402.45 422.601 1402.57 426.426 1401.94 z"/>
<path transform="translate(0,0)" fill="rgb(181,182,183)" d="M 333.979 1558.67 C 327.762 1556.6 322.689 1554.1 317.671 1548.86 C 298.384 1527.45 280.93 1494.44 278.213 1465.62 C 277.05 1453.29 286.019 1452.48 295.472 1452.91 C 329.097 1454.47 363.096 1455.48 396.608 1458.59 C 399.434 1458.85 400.295 1460.36 402.14 1462.22 C 402.562 1466.49 416.431 1507.76 418.801 1516.16 C 424.821 1533.41 435.69 1557.78 446.692 1572.41 C 412.464 1570.23 378.772 1566.15 344.928 1560.63 C 341.987 1560.15 336.699 1558.83 333.979 1558.67 z"/>
<path transform="translate(0,0)" fill="rgb(118,121,130)" d="M 311.443 1514.87 C 320.819 1512.13 385.356 1517.12 395.69 1519.17 C 402.635 1518.97 414.241 1520.25 418.801 1516.16 C 424.821 1533.41 435.69 1557.78 446.692 1572.41 C 412.464 1570.23 378.772 1566.15 344.928 1560.63 C 341.987 1560.15 336.699 1558.83 333.979 1558.67 C 332.79 1553.98 327.664 1545.96 325.04 1541.44 C 318.607 1532.22 315.759 1525.08 311.443 1514.87 z"/>
<path transform="translate(0,0)" fill="rgb(50,60,82)" d="M 311.443 1514.87 C 320.819 1512.13 385.356 1517.12 395.69 1519.17 C 398.335 1527.79 400.511 1535.2 402.648 1543.98 C 380.613 1544.27 359.015 1544.33 337.044 1542.28 C 333.46 1541.94 328.481 1541.24 325.04 1541.44 C 318.607 1532.22 315.759 1525.08 311.443 1514.87 z"/>
<path transform="translate(0,0)" fill="rgb(247,247,247)" d="M 333.979 1558.67 C 327.762 1556.6 322.689 1554.1 317.671 1548.86 C 298.384 1527.45 280.93 1494.44 278.213 1465.62 C 277.05 1453.29 286.019 1452.48 295.472 1452.91 C 329.097 1454.47 363.096 1455.48 396.608 1458.59 C 399.434 1458.85 400.295 1460.36 402.14 1462.22 C 400.607 1468 398.148 1470.63 394.097 1475.03 C 379.94 1473.67 361.947 1473.78 347.371 1473.36 C 332.294 1472.93 310.54 1471.35 295.953 1472.42 C 298.574 1482.68 305.617 1506.46 311.443 1514.87 C 315.759 1525.08 318.607 1532.22 325.04 1541.44 C 327.664 1545.96 332.79 1553.98 333.979 1558.67 z"/>
<path transform="translate(0,0)" fill="rgb(50,60,82)" d="M 1260.79 1159.43 C 1306.67 1167.68 1332.44 1167.46 1378.71 1161.52 C 1366.5 1200.34 1361.89 1206.78 1323.56 1226.67 C 1320.78 1228.11 1318.17 1229.72 1315.07 1230.64 C 1278.96 1250.51 1245.37 1276.9 1208.15 1294.94 C 1205.66 1296.15 1205.15 1295.7 1202.9 1294.65 C 1201.06 1291.91 1201.28 1291.88 1200.58 1288.95 C 1193.58 1259.49 1206.41 1245.53 1221.64 1222.05 C 1221.68 1217.07 1237.6 1196.87 1240.99 1191.59 C 1247.8 1181.01 1254.51 1170.35 1260.79 1159.43 z"/>
<path transform="translate(0,0)" fill="rgb(42,61,95)" d="M 1221.64 1222.05 C 1224.15 1220.34 1236.37 1200.67 1239.16 1196.66 C 1253.59 1205.88 1268.99 1213.5 1285.08 1219.39 C 1292.13 1222.01 1309.81 1227.31 1315.07 1230.64 C 1278.96 1250.51 1245.37 1276.9 1208.15 1294.94 C 1205.66 1296.15 1205.15 1295.7 1202.9 1294.65 C 1201.06 1291.91 1201.28 1291.88 1200.58 1288.95 C 1193.58 1259.49 1206.41 1245.53 1221.64 1222.05 z"/>
<path transform="translate(0,0)" fill="rgb(165,203,223)" d="M 218.484 1270.99 C 225.705 1299.31 230.986 1328.7 237.15 1357.29 C 238.543 1363.75 241.556 1378.24 236.585 1383.35 L 234.655 1382.9 C 231.19 1378.84 219.567 1337.15 217.271 1329.62 C 208.84 1301.78 199.556 1274.2 189.433 1246.92 C 176.423 1212.87 160.546 1181.95 145.794 1148.67 C 137.746 1130.51 138.798 1093.47 135.216 1072.92 C 133.482 1062.97 131.839 1033.31 145.586 1031.37 C 149.749 1036.61 152.688 1075.58 155.291 1085.04 C 155.479 1088.8 162.467 1103.81 162.119 1106.1 C 160.837 1114.52 148.965 1147.94 168.655 1144.81 C 179.091 1138.2 198.371 1094.76 208.301 1079.98 C 208.77 1087.59 208.887 1094.57 208.975 1102.16 C 212.759 1124.49 217.596 1170.52 227.903 1188.88 C 215.754 1212.83 209.054 1215.08 216.506 1244 C 217.84 1248.57 223.344 1260.79 220.657 1264.7 C 218.466 1267.88 218.711 1266.75 218.484 1270.99 z"/>
<path transform="translate(0,0)" fill="rgb(94,128,168)" d="M 208.975 1102.16 C 212.759 1124.49 217.596 1170.52 227.903 1188.88 C 215.754 1212.83 209.054 1215.08 216.506 1244 C 215.176 1247.52 215.63 1249.12 211.641 1249.42 C 209.022 1245.19 201.443 1227.77 199.144 1222.76 C 190.689 1203.98 181.957 1185.33 172.948 1166.8 C 187.573 1152.8 206.278 1122.7 208.975 1102.16 z"/>
<path transform="translate(0,0)" fill="rgb(42,61,95)" d="M 216.506 1244 C 217.84 1248.57 223.344 1260.79 220.657 1264.7 C 218.466 1267.88 218.711 1266.75 218.484 1270.99 C 216.251 1262.67 214.708 1257.56 211.641 1249.42 C 215.63 1249.12 215.176 1247.52 216.506 1244 z"/>
<path transform="translate(0,0)" fill="rgb(237,142,73)" d="M 1025.18 689.103 C 1033.39 695.822 1057.58 690.623 1068.03 697.302 C 1039.44 761.783 1031.07 821.858 1038.44 892.063 C 1038.02 893.583 1037.43 895.839 1036.58 896.817 C 1032.33 901.69 1003.99 902.783 1000.31 898.1 C 995.613 892.12 995.402 865.354 994.679 857.566 L 993.079 861.203 C 992.544 807.847 1000.66 737.145 1025.18 689.103 z"/>
<path transform="translate(0,0)" fill="rgb(181,182,183)" d="M 265.863 1394.98 C 273.792 1394.73 282.252 1395.11 290.16 1395.84 C 335.563 1400.01 381.03 1399.84 426.426 1401.94 C 422.601 1402.57 420.416 1402.45 417.813 1405.2 L 417.448 1406.38 C 415.378 1412.92 414.523 1414.25 408.263 1417.48 C 412.278 1418.17 415.583 1416.37 417.587 1418.83 C 428.537 1419.04 444.464 1417.61 453.768 1420.29 C 424.464 1431.57 441.945 1467.96 434.878 1480.04 C 434.702 1479.02 434.527 1478.02 434.275 1477.01 C 431.441 1465.62 427.338 1446.14 416.105 1439.98 C 405.666 1434.26 296.666 1428.43 278.319 1429.17 C 275.212 1429.3 272.311 1429.94 269.34 1430.84 C 260.192 1438.18 258.41 1446.48 255.368 1457.46 C 245.061 1434.81 253.351 1414.98 265.863 1394.98 z"/>
<path transform="translate(0,0)" fill="rgb(247,247,247)" d="M 265.863 1394.98 C 273.792 1394.73 282.252 1395.11 290.16 1395.84 C 335.563 1400.01 381.03 1399.84 426.426 1401.94 C 422.601 1402.57 420.416 1402.45 417.813 1405.2 L 417.448 1406.38 C 415.378 1412.92 414.523 1414.25 408.263 1417.48 C 412.278 1418.17 415.583 1416.37 417.587 1418.83 C 397.931 1419.52 275.033 1412.29 271.49 1414.16 C 269.219 1418.57 267.696 1426.06 269.34 1430.84 C 260.192 1438.18 258.41 1446.48 255.368 1457.46 C 245.061 1434.81 253.351 1414.98 265.863 1394.98 z"/>
<path transform="translate(0,0)" fill="url(#Gradient2)" d="M 993.079 861.203 L 994.679 857.566 C 995.402 865.354 995.613 892.12 1000.31 898.1 C 1003.99 902.783 1032.33 901.69 1036.58 896.817 C 1037.43 895.839 1038.02 893.583 1038.44 892.063 C 1045.37 941.097 1054.96 974.075 1078.72 1018.3 L 1076.98 1020.45 C 1066.48 1024.29 1055.73 1030.25 1045.9 1035.67 C 1040.41 1032.18 1031.24 1015.12 1028.2 1008.94 C 1005.02 961.786 994.697 913.497 993.079 861.203 z"/>
<path transform="translate(0,0)" fill="rgb(50,60,82)" d="M 910.569 1357.98 C 911.823 1358.04 912.105 1358.25 913.329 1358.64 C 916.571 1365.11 922.057 1380.3 925.688 1388.43 C 909.531 1401.34 874.227 1413.14 853.913 1421.29 C 833.845 1429.34 805.238 1441.62 784.761 1447.67 C 780.567 1449.15 777.048 1450.86 772.706 1450.53 L 771.452 1449.03 C 770.159 1441.25 773.894 1415.62 781.819 1411.89 C 811.634 1397.89 843.645 1388.37 873.605 1374.22 C 885.498 1368.6 898.402 1363.01 910.569 1357.98 z"/>
<path transform="translate(0,0)" fill="rgb(50,60,82)" d="M 311.817 602.517 C 332.211 601.955 356.918 602.878 377.638 603.101 C 386.661 610.798 389.7 614.516 396.756 623.932 C 363.786 623.032 320.374 620.347 287.695 623.736 C 267.216 623.819 241.49 627.252 220.169 628.088 C 217.321 621.59 210.837 613.347 206.475 607.402 L 207.609 606.176 C 219.508 604.478 232.841 604.443 244.935 604.053 C 267.224 603.36 289.519 602.848 311.817 602.517 z"/>
<path transform="translate(0,0)" fill="url(#Gradient1)" d="M 1153.73 547.431 C 1159.5 545.173 1162.89 541.928 1169.39 544.172 C 1170.89 544.689 1171.11 546.999 1171.97 548.66 C 1176.11 547.825 1181.69 546.236 1185.62 546.983 C 1187.52 549.453 1187.05 548.112 1187.27 551.083 C 1185.31 554.15 1184.47 554.584 1181.57 556.934 L 1181.16 559.138 L 1180.52 559.688 C 1173.94 565.288 1165.9 570.257 1158.99 575.789 C 1140.99 590.379 1124.87 607.153 1111 625.725 C 1103.71 620.831 1082.61 614.532 1073.1 611.402 C 1087.13 593.175 1108 573.897 1126.47 560.366 C 1133.4 555.018 1144.1 548.367 1151.69 544.16 L 1153.73 547.431 z"/>
<path transform="translate(0,0)" fill="rgb(248,174,97)" d="M 1126.47 560.366 C 1133.4 555.018 1144.1 548.367 1151.69 544.16 L 1153.73 547.431 L 1149.78 549.629 L 1154.15 550.904 L 1154.23 551.946 C 1149.84 554.259 1135.63 562.495 1130.9 562.064 C 1130.31 562.011 1127.27 560.722 1126.47 560.366 z"/>
<path transform="translate(0,0)" fill="rgb(248,174,97)" d="M 1073.1 611.402 C 1082.61 614.532 1103.71 620.831 1111 625.725 C 1104.83 634.451 1098.25 643.493 1092.37 652.363 C 1082.23 668.736 1076.29 679.896 1068.03 697.302 C 1057.58 690.623 1033.39 695.822 1025.18 689.103 C 1033.08 670.572 1042.93 654.014 1053.78 637.083 C 1059.67 628.119 1066.12 619.54 1073.1 611.402 z"/>
<path transform="translate(0,0)" fill="rgb(243,228,183)" d="M 1073.1 611.402 C 1082.61 614.532 1103.71 620.831 1111 625.725 C 1104.83 634.451 1098.25 643.493 1092.37 652.363 C 1086.25 651.291 1076.98 651.656 1070.77 652.223 C 1064.29 647.662 1058.19 643.659 1053.78 637.083 C 1059.67 628.119 1066.12 619.54 1073.1 611.402 z"/>
<path transform="translate(0,0)" fill="rgb(50,60,82)" d="M 169.225 608.223 C 170.657 608.029 172.436 608.186 173.923 608.238 C 180.172 611.944 189.404 627.026 193.749 633.491 C 185.521 634.037 171.812 636.708 163.748 639.53 C 150.521 644.158 128.281 650.202 119.343 661.029 C 116.09 664.97 110.007 676.8 107.421 681.647 L 106.647 682.601 L 105.021 682.114 C 96.9488 672.417 89.5248 659.937 85.5507 647.965 C 103.712 628.305 143.135 613.608 169.225 608.223 z"/>
<path transform="translate(0,0)" fill="rgb(219,131,71)" d="M 908.612 1312.15 L 910.279 1313.25 C 911.356 1319.68 910.999 1329.04 910.969 1335.77 C 875.762 1352.27 826.064 1372.74 789.529 1385.73 L 788.312 1385.38 C 787 1382.37 789.869 1375.44 791.034 1372.39 C 794.692 1362.6 803.853 1356.51 813.305 1352.72 C 845.197 1339.94 876.724 1324.77 908.612 1312.15 z"/>
<path transform="translate(0,0)" fill="rgb(248,174,97)" d="M 305.816 408.942 C 315.649 407.264 381.88 405.923 386.649 411.476 C 386.555 414.542 386.335 414.562 384.946 417.189 C 380.261 427.64 375.498 434.123 367.837 442.463 C 357.775 443.494 300.017 442.338 290.62 440.922 C 291.507 432.854 294.985 417.654 299.967 410.643 C 301.411 408.611 303.086 409.119 305.816 408.942 z"/>
<path transform="translate(0,0)" fill="rgb(237,142,73)" d="M 305.816 408.942 C 315.649 407.264 381.88 405.923 386.649 411.476 C 386.555 414.542 386.335 414.562 384.946 417.189 C 367.453 404.344 326.386 411.165 305.816 408.942 z"/>
<path transform="translate(0,0)" fill="rgb(237,142,73)" d="M 1151.69 544.16 C 1159.15 539.228 1168.32 535.642 1176.31 531.588 C 1218.81 510.012 1269.28 503.506 1316.37 513.102 C 1317.28 513.289 1318.2 513.48 1319.11 513.677 C 1276.59 518.413 1248.34 524.144 1209.34 543.529 C 1201 547.675 1188 555.893 1181.16 559.138 L 1181.57 556.934 C 1184.47 554.584 1185.31 554.15 1187.27 551.083 C 1187.05 548.112 1187.52 549.453 1185.62 546.983 C 1181.69 546.236 1176.11 547.825 1171.97 548.66 C 1171.11 546.999 1170.89 544.689 1169.39 544.172 C 1162.89 541.928 1159.5 545.173 1153.73 547.431 L 1151.69 544.16 z"/>
<path transform="translate(0,0)" fill="rgb(165,228,225)" d="M 291.768 283.479 C 297.041 278.89 300.902 275.735 306.548 271.642 C 303.082 276.637 299.616 281.757 295.93 286.581 L 291.768 283.479 z"/>
<path transform="translate(0,0)" fill="rgb(120,156,192)" d="M 365.725 237.839 C 370.736 232.639 372.806 231.175 378.805 227.007 C 375.698 231.619 372.83 236.138 369.147 240.309 L 365.725 237.839 z"/>
</svg>